<?xml version="1.0" encoding="UTF-8" standalone="no"?>
<!DOCTYPE svg PUBLIC "-//W3C//DTD SVG 1.1//EN" "http://www.w3.org/Graphics/SVG/1.1/DTD/svg11.dtd">
<svg width="100%" height="100%" viewBox="0 0 350 209" version="1.1" xmlns="http://www.w3.org/2000/svg" xmlns:xlink="http://www.w3.org/1999/xlink" xml:space="preserve" xmlns:serif="http://www.serif.com/" style="fill-rule:evenodd;clip-rule:evenodd;stroke-linejoin:round;stroke-miterlimit:2;">
    <g transform="matrix(1,0,0,1,-65,-18.6502)">
        <g transform="matrix(0.999317,0,0,1,-243.794,-195.466)">
            <path d="M636.978,390L651.275,390L651.275,341.533C651.184,332.874 648.471,326.768 643.135,323.213C637.799,319.749 630.662,318.063 621.724,318.154C611.144,317.972 603.14,321.436 597.713,328.545L608.932,337.09C610.163,335.039 611.851,333.581 613.994,332.715C616.046,331.986 618.851,331.621 622.408,331.621C632.213,331.439 637.07,334.469 636.978,340.713L636.978,348.164L617.209,348.164C609.639,348.255 603.893,350.306 599.971,354.316C596.049,358.236 594.088,363.18 594.088,369.15C594.088,375.394 596.345,380.521 600.86,384.531C605.147,388.633 611.258,390.729 619.193,390.82C624.027,390.82 627.812,390.228 630.548,389.043C633.33,387.904 635.382,386.126 636.705,383.711L636.978,383.711L636.978,390ZM636.978,365.049C636.978,370.381 635.861,373.799 633.626,375.303C631.164,376.807 626.945,377.513 620.971,377.422C616.229,377.422 612.831,376.488 610.779,374.619C608.635,372.933 607.564,370.882 607.564,368.467C607.473,362.952 611.577,360.104 619.877,359.922L636.978,359.922L636.978,365.049Z" style="fill:rgb(83,56,2);"/>
        </g>
        <g transform="matrix(0.999317,0,0,1,-243.794,-195.466)">
            <path d="M636.978,390L651.275,390L651.275,341.533C651.184,332.874 648.471,326.768 643.135,323.213C637.799,319.749 630.662,318.063 621.724,318.154C611.144,317.972 603.14,321.436 597.713,328.545L608.932,337.09C610.163,335.039 611.851,333.581 613.994,332.715C616.046,331.986 618.851,331.621 622.408,331.621C632.213,331.439 637.07,334.469 636.978,340.713L636.978,348.164L617.209,348.164C609.639,348.255 603.893,350.306 599.971,354.316C596.049,358.236 594.088,363.18 594.088,369.15C594.088,375.394 596.345,380.521 600.86,384.531C605.147,388.633 611.258,390.729 619.193,390.82C624.027,390.82 627.812,390.228 630.548,389.043C633.33,387.904 635.382,386.126 636.705,383.711L636.978,383.711L636.978,390Z" style="fill:none;"/>
        </g>
        <g transform="matrix(0.999317,0,0,1,-243.794,-195.466)">
            <path d="M636.978,365.049C636.978,370.381 635.861,373.799 633.626,375.303C631.164,376.807 626.945,377.513 620.971,377.422C616.229,377.422 612.831,376.488 610.779,374.619C608.635,372.933 607.564,370.882 607.564,368.467C607.473,362.952 611.577,360.104 619.877,359.922L636.978,359.922L636.978,365.049Z" style="fill:none;"/>
        </g>
        <g transform="matrix(0.999317,0,0,1,-243.794,-195.466)">
            <path d="M552.77,387.197L548.871,399.092C548.233,401.143 547.116,402.692 545.519,403.74C543.923,404.743 542.19,405.244 540.321,405.244L536.148,405.244L536.148,418.711L540.868,418.711C545.291,418.711 549.259,417.731 552.77,415.771C556.236,413.721 558.95,410.029 560.911,404.697L591.488,319.043L576.302,319.043L559.543,368.74L559.269,368.74L542.441,319.043L527.323,319.043L552.77,387.197Z" style="fill:rgb(83,56,2);"/>
        </g>
        <g transform="matrix(0.999317,0,0,1,-243.794,-195.466)">
            <path d="M552.77,387.197L548.871,399.092C548.233,401.143 547.116,402.692 545.519,403.74C543.923,404.743 542.19,405.244 540.321,405.244L536.148,405.244L536.148,418.711L540.868,418.711C545.291,418.711 549.259,417.731 552.77,415.771C556.236,413.721 558.95,410.029 560.911,404.697L591.488,319.043L576.302,319.043L559.543,368.74L559.269,368.74L542.441,319.043L527.323,319.043L552.77,387.197Z" style="fill:none;"/>
        </g>
        <g transform="matrix(0.999317,0,0,1,-243.794,-195.466)">
            <path d="M462.269,390L476.566,390L476.566,347.754C476.566,342.786 477.911,339.004 480.602,336.406C483.247,333.763 486.622,332.441 490.726,332.441C494.831,332.441 498.182,333.763 500.782,336.406C503.427,339.004 504.749,342.786 504.749,347.754L504.749,390L519.046,390L519.046,342.832C518.818,334.72 516.287,328.568 511.453,324.375C506.574,320.228 501.192,318.154 495.309,318.154C487.694,318.154 481.537,320.957 476.84,326.562L476.566,326.562L476.566,319.043L462.269,319.043L462.269,390Z" style="fill:rgb(83,56,2);"/>
        </g>
        <g transform="matrix(0.999317,0,0,1,-243.794,-195.466)">
            <path d="M462.269,390L476.566,390L476.566,347.754C476.566,342.786 477.911,339.004 480.602,336.406C483.247,333.763 486.622,332.441 490.726,332.441C494.831,332.441 498.182,333.763 500.782,336.406C503.427,339.004 504.749,342.786 504.749,347.754L504.749,390L519.046,390L519.046,342.832C518.818,334.72 516.287,328.568 511.453,324.375C506.574,320.228 501.192,318.154 495.309,318.154C487.694,318.154 481.537,320.957 476.84,326.562L476.566,326.562L476.566,319.043L462.269,319.043L462.269,390Z" style="fill:none;"/>
        </g>
        <g transform="matrix(0.999317,0,0,1,-243.794,-195.466)">
            <path d="M447.288,359.922L447.288,348.164C447.197,338.822 444.301,331.484 438.601,326.152C432.991,320.911 426.128,318.245 418.011,318.154C414.636,318.154 411.216,318.77 407.75,320C404.238,321.23 401.069,323.236 398.241,326.016C395.459,328.75 393.179,332.487 391.401,337.227C389.622,341.875 388.733,347.708 388.733,354.727C388.733,362.018 389.759,367.943 391.811,372.5C393.681,377.24 396.121,380.931 399.13,383.574C400.681,384.85 402.346,385.921 404.124,386.787C405.811,387.79 407.544,388.587 409.323,389.18C412.88,390.273 416.528,390.82 420.268,390.82C430.073,390.911 438.601,387.083 445.852,379.336L435.522,370.518C430.962,375.12 425.786,377.422 419.994,377.422C415.023,377.422 411.01,375.918 407.955,372.91C404.671,369.948 403.03,365.618 403.03,359.922L447.288,359.922ZM403.03,348.164C403.303,342.65 404.785,338.48 407.476,335.654C410.212,332.965 413.724,331.621 418.011,331.621C422.297,331.621 425.809,332.965 428.545,335.654C431.327,338.48 432.809,342.65 432.991,348.164L403.03,348.164Z" style="fill:rgb(83,56,2);"/>
        </g>
        <g transform="matrix(0.999317,0,0,1,-243.794,-195.466)">
            <path d="M447.288,359.922L447.288,348.164C447.197,338.822 444.301,331.484 438.601,326.152C432.991,320.911 426.128,318.245 418.011,318.154C414.636,318.154 411.216,318.77 407.75,320C404.238,321.23 401.069,323.236 398.241,326.016C395.459,328.75 393.179,332.487 391.401,337.227C389.622,341.875 388.733,347.708 388.733,354.727C388.733,362.018 389.759,367.943 391.811,372.5C393.681,377.24 396.121,380.931 399.13,383.574C400.681,384.85 402.346,385.921 404.124,386.787C405.811,387.79 407.544,388.587 409.323,389.18C412.88,390.273 416.528,390.82 420.268,390.82C430.073,390.911 438.601,387.083 445.852,379.336L435.522,370.518C430.962,375.12 425.786,377.422 419.994,377.422C415.023,377.422 411.01,375.918 407.955,372.91C404.671,369.948 403.03,365.618 403.03,359.922L447.288,359.922Z" style="fill:none;"/>
        </g>
        <g transform="matrix(0.999317,0,0,1,-243.794,-195.466)">
            <path d="M403.03,348.164C403.303,342.65 404.785,338.48 407.476,335.654C410.212,332.965 413.724,331.621 418.011,331.621C422.297,331.621 425.809,332.965 428.545,335.654C431.327,338.48 432.809,342.65 432.991,348.164L403.03,348.164Z" style="fill:none;"/>
        </g>
        <g transform="matrix(0.999317,0,0,1,-243.794,-195.466)">
            <path d="M316.975,390L331.272,390L331.272,347.754C331.272,342.786 332.617,339.004 335.308,336.406C337.953,333.763 341.327,332.441 345.432,332.441C349.536,332.441 352.888,333.763 355.487,336.406C358.132,339.004 359.455,342.786 359.455,347.754L359.455,390L373.752,390L373.752,342.832C373.524,334.72 370.993,328.568 366.159,324.375C361.279,320.228 355.898,318.154 350.015,318.154C342.399,318.154 336.242,320.957 331.545,326.562L331.272,326.562L331.272,290.332L316.975,290.332L316.975,390Z" style="fill:rgb(83,56,2);"/>
        </g>
        <g transform="matrix(0.999317,0,0,1,-243.794,-195.466)">
            <path d="M316.975,390L331.272,390L331.272,347.754C331.272,342.786 332.617,339.004 335.308,336.406C337.953,333.763 341.327,332.441 345.432,332.441C349.536,332.441 352.888,333.763 355.487,336.406C358.132,339.004 359.455,342.786 359.455,347.754L359.455,390L373.752,390L373.752,342.832C373.524,334.72 370.993,328.568 366.159,324.375C361.279,320.228 355.898,318.154 350.015,318.154C342.399,318.154 336.242,320.957 331.545,326.562L331.272,326.562L331.272,290.332L316.975,290.332L316.975,390Z" style="fill:none;"/>
        </g>
        <g transform="matrix(1,0,0,1,-239.579,-267.277)">
            <path d="M620.98,390L635.268,390L635.268,341.533C635.176,332.874 632.465,326.768 627.133,323.213C621.801,319.749 614.669,318.063 605.736,318.154C595.163,317.972 587.165,321.436 581.742,328.545L592.953,337.09C594.184,335.039 595.87,333.581 598.012,332.715C600.063,331.986 602.865,331.621 606.42,331.621C616.218,331.439 621.072,334.469 620.98,340.713L620.98,348.164L601.225,348.164C593.66,348.255 587.917,350.306 583.998,354.316C580.079,358.236 578.119,363.18 578.119,369.15C578.119,375.394 580.375,380.521 584.887,384.531C589.171,388.633 595.277,390.729 603.207,390.82C608.038,390.82 611.82,390.228 614.555,389.043C617.335,387.904 619.385,386.126 620.707,383.711L620.98,383.711L620.98,390ZM620.98,365.049C620.98,370.381 619.864,373.799 617.631,375.303C615.17,376.807 610.954,377.513 604.984,377.422C600.245,377.422 596.85,376.488 594.799,374.619C592.657,372.933 591.586,370.882 591.586,368.467C591.495,362.952 595.596,360.104 603.891,359.922L620.98,359.922L620.98,365.049Z" style="fill:rgb(250,178,16);"/>
        </g>
        <g transform="matrix(1,0,0,1,-239.579,-267.277)">
            <path d="M620.98,390L635.268,390L635.268,341.533C635.176,332.874 632.465,326.768 627.133,323.213C621.801,319.749 614.669,318.063 605.736,318.154C595.163,317.972 587.165,321.436 581.742,328.545L592.953,337.09C594.184,335.039 595.87,333.581 598.012,332.715C600.063,331.986 602.865,331.621 606.42,331.621C616.218,331.439 621.072,334.469 620.98,340.713L620.98,348.164L601.225,348.164C593.66,348.255 587.917,350.306 583.998,354.316C580.079,358.236 578.119,363.18 578.119,369.15C578.119,375.394 580.375,380.521 584.887,384.531C589.171,388.633 595.277,390.729 603.207,390.82C608.038,390.82 611.82,390.228 614.555,389.043C617.335,387.904 619.385,386.126 620.707,383.711L620.98,383.711L620.98,390Z" style="fill:none;"/>
        </g>
        <g transform="matrix(1,0,0,1,-239.579,-267.277)">
            <path d="M620.98,365.049C620.98,370.381 619.864,373.799 617.631,375.303C615.17,376.807 610.954,377.513 604.984,377.422C600.245,377.422 596.85,376.488 594.799,374.619C592.657,372.933 591.586,370.882 591.586,368.467C591.495,362.952 595.596,360.104 603.891,359.922L620.98,359.922L620.98,365.049Z" style="fill:none;"/>
        </g>
        <g transform="matrix(1,0,0,1,-239.579,-267.277)">
            <path d="M547.631,372.773C547.631,379.017 549.408,383.46 552.963,386.104C556.335,388.701 560.619,390 565.814,390L572.172,390L572.172,376.533L567.25,376.533C563.695,376.533 561.918,374.915 561.918,371.68L561.918,290.332L547.631,290.332L547.631,372.773Z" style="fill:rgb(250,178,16);"/>
        </g>
        <g transform="matrix(1,0,0,1,-239.579,-267.277)">
            <path d="M547.631,372.773C547.631,379.017 549.408,383.46 552.963,386.104C556.335,388.701 560.619,390 565.814,390L572.172,390L572.172,376.533L567.25,376.533C563.695,376.533 561.918,374.915 561.918,371.68L561.918,290.332L547.631,290.332L547.631,372.773Z" style="fill:none;"/>
        </g>
        <g transform="matrix(1,0,0,1,-239.579,-267.277)">
            <path d="M511.537,372.773C511.537,379.017 513.314,383.46 516.869,386.104C520.242,388.701 524.525,390 529.721,390L536.078,390L536.078,376.533L531.156,376.533C527.602,376.533 525.824,374.915 525.824,371.68L525.824,290.332L511.537,290.332L511.537,372.773Z" style="fill:rgb(250,178,16);"/>
        </g>
        <g transform="matrix(1,0,0,1,-239.579,-267.277)">
            <path d="M511.537,372.773C511.537,379.017 513.314,383.46 516.869,386.104C520.242,388.701 524.525,390 529.721,390L536.078,390L536.078,376.533L531.156,376.533C527.602,376.533 525.824,374.915 525.824,371.68L525.824,290.332L511.537,290.332L511.537,372.773Z" style="fill:none;"/>
        </g>
        <g transform="matrix(1,0,0,1,-239.579,-267.277)">
            <rect x="478.383" y="319.043" width="14.287" height="70.957" style="fill:rgb(250,178,16);"/>
        </g>
        <g transform="matrix(1,0,0,1,-239.579,-267.277)">
            <rect x="478.383" y="290.332" width="14.287" height="14.287" style="fill:rgb(250,178,16);"/>
        </g>
        <g transform="matrix(1,0,0,1,-239.579,-267.277)">
            <rect x="478.383" y="319.043" width="14.287" height="70.957" style="fill:none;"/>
        </g>
        <g transform="matrix(1,0,0,1,-239.579,-267.277)">
            <rect x="478.383" y="290.332" width="14.287" height="14.287" style="fill:none;"/>
        </g>
        <g transform="matrix(1,0,0,1,-239.579,-267.277)">
            <path d="M431.83,390L443.588,390L469.633,319.043L454.457,319.043L437.846,368.74L437.572,368.74L420.893,319.043L405.785,319.043L431.83,390Z" style="fill:rgb(250,178,16);"/>
        </g>
        <g transform="matrix(1,0,0,1,-239.579,-267.277)">
            <path d="M431.83,390L443.588,390L469.633,319.043L454.457,319.043L437.846,368.74L437.572,368.74L420.893,319.043L405.785,319.043L431.83,390Z" style="fill:none;"/>
        </g>
        <g transform="matrix(1,0,0,1,-239.579,-267.277)">
            <path d="M393.07,390L408.998,390L372.768,290.332L360.121,290.332L323.891,390L339.887,390L347.543,367.715L385.346,367.715L393.07,390ZM351.918,354.316L366.342,310.771L366.615,310.771L381.039,354.316L351.918,354.316Z" style="fill:rgb(250,178,16);"/>
        </g>
        <g transform="matrix(1,0,0,1,-239.579,-267.277)">
            <path d="M393.07,390L408.998,390L372.768,290.332L360.121,290.332L323.891,390L339.887,390L347.543,367.715L385.346,367.715L393.07,390Z" style="fill:none;"/>
        </g>
        <g transform="matrix(1,0,0,1,-239.579,-267.277)">
            <path d="M351.918,354.316L366.342,310.771L366.615,310.771L381.039,354.316L351.918,354.316Z" style="fill:none;"/>
        </g>
    </g>
</svg>
